<svg width="56" height="64" viewBox="-0.589741 9.08208 56.1794 63.9294" fill="none" xmlns="http://www.w3.org/2000/svg">
<g filter="url(#filter0_d_1692_2094)">
<rect x="0.257812" y="9.44531" width="53.5169" height="5.32748" rx="1.93726" fill="url(#paint0_radial_1692_2094)"/>
<path d="M42.1523 18.6484C42.1508 18.6557 41.7858 20.3439 41.7988 21.4336C41.8108 22.423 42.1466 23.9495 42.1523 23.9756H11.8828C11.8886 23.9495 12.2244 22.423 12.2363 21.4336C12.2494 20.3439 11.8844 18.6557 11.8828 18.6484H42.1523Z" fill="url(#paint1_radial_1692_2094)"/>
<circle cx="5.08532" cy="5.08532" r="5.08532" transform="matrix(-1 0 0 1 53.7734 16.2266)" fill="url(#paint2_radial_1692_2094)"/>
<circle cx="5.34313" cy="21.3119" r="5.08532" fill="url(#paint3_radial_1692_2094)"/>
<path d="M36.0938 29.0624V64.6596L42.3899 60.1797V29.3045C42.3899 28.4327 41.4212 27.9726 40.9369 27.8516H37.1835C36.3117 27.9484 36.0938 28.6991 36.0938 29.0624Z" fill="url(#paint4_radial_1692_2094)"/>
<path d="M18.4219 29.0624V64.6596L12.1258 60.1797V29.3045C12.1258 28.4327 13.0944 27.9726 13.5787 27.8516H17.3322C18.2039 27.9484 18.4219 28.6991 18.4219 29.0624Z" fill="url(#paint5_radial_1692_2094)"/>
<path d="M23.9844 27.8516V29.5467V67.8076L27.1324 70.7135L30.2805 68.0498V27.8516H23.9844Z" fill="url(#paint6_radial_1692_2094)"/>
</g>
<defs>
<filter id="filter0_d_1692_2094" x="-0.589741" y="9.08208" width="56.1794" height="63.9294" filterUnits="userSpaceOnUse" color-interpolation-filters="sRGB">
<feFlood flood-opacity="0" result="BackgroundImageFix"/>
<feColorMatrix in="SourceAlpha" type="matrix" values="0 0 0 0 0 0 0 0 0 0 0 0 0 0 0 0 0 0 127 0" result="hardAlpha"/>
<feOffset dx="0.484316" dy="0.968632"/>
<feGaussianBlur stdDeviation="0.665935"/>
<feComposite in2="hardAlpha" operator="out"/>
<feColorMatrix type="matrix" values="0 0 0 0 0 0 0 0 0 0 0 0 0 0 0 0 0 0 0.25 0"/>
<feBlend mode="normal" in2="BackgroundImageFix" result="effect1_dropShadow_1692_2094"/>
<feBlend mode="normal" in="SourceGraphic" in2="effect1_dropShadow_1692_2094" result="shape"/>
</filter>
<radialGradient id="paint0_radial_1692_2094" cx="0" cy="0" r="1" gradientUnits="userSpaceOnUse" gradientTransform="translate(27.0163 12.1091) scale(26.7585 2.66374)">
<stop stop-color="#EFCE87"/>
<stop offset="1" stop-color="#D8B26B"/>
</radialGradient>
<radialGradient id="paint1_radial_1692_2094" cx="0" cy="0" r="1" gradientUnits="userSpaceOnUse" gradientTransform="translate(27.0176 21.312) scale(15.1348 2.66357)">
<stop stop-color="#EFCE87"/>
<stop offset="1" stop-color="#D8B26B"/>
</radialGradient>
<radialGradient id="paint2_radial_1692_2094" cx="0" cy="0" r="1" gradientUnits="userSpaceOnUse" gradientTransform="translate(5.08532 5.08532) scale(5.08532)">
<stop stop-color="#EFCE87"/>
<stop offset="1" stop-color="#D8B26B"/>
</radialGradient>
<radialGradient id="paint3_radial_1692_2094" cx="0" cy="0" r="1" gradientUnits="userSpaceOnUse" gradientTransform="translate(5.34313 21.3119) scale(5.08532)">
<stop stop-color="#EFCE87"/>
<stop offset="1" stop-color="#D8B26B"/>
</radialGradient>
<radialGradient id="paint4_radial_1692_2094" cx="0" cy="0" r="1" gradientUnits="userSpaceOnUse" gradientTransform="translate(39.2418 46.2556) scale(3.14806 18.404)">
<stop stop-color="#EFCE87"/>
<stop offset="1" stop-color="#D8B26B"/>
</radialGradient>
<radialGradient id="paint5_radial_1692_2094" cx="0" cy="0" r="1" gradientUnits="userSpaceOnUse" gradientTransform="translate(15.2738 46.2556) rotate(180) scale(3.14806 18.404)">
<stop stop-color="#EFCE87"/>
<stop offset="1" stop-color="#D8B26B"/>
</radialGradient>
<radialGradient id="paint6_radial_1692_2094" cx="0" cy="0" r="1" gradientUnits="userSpaceOnUse" gradientTransform="translate(27.1324 49.2826) scale(3.14806 21.431)">
<stop stop-color="#EFCE87"/>
<stop offset="1" stop-color="#D8B26B"/>
</radialGradient>
</defs>
</svg>
